<svg xmlns="http://www.w3.org/2000/svg" version="1.1" viewBox="0 0 715 886">
  <g fill="none" fill-rule="evenodd" stroke="none" stroke-width="1">
    <path fill="#FFC400" d="M243.869 647.915C87.916 566.895 27.171 374.79 108.191 218.836 189.211 62.883 381.317 2.137 537.27 83.158c155.954 81.02 216.699 273.125 135.678 429.078-81.02 155.954-273.125 216.699-429.079 135.679"/>
    <path fill="#FFFFFE" d="M451.656 777.78l-46.152-31.239c-.017-.553-.085-1.074-.134-1.607 41.097-2.105 121.966-24.396 121.966-24.396l24.7-9.482-23.079-59.358-23.595 10.684 9.587 25.374c-82.859 33.187-173.744 33.46-257.023.378-86.2-34.242-153.891-99.997-190.621-185.153-36.737-85.154-38.115-179.517-3.877-265.708 34.24-86.185 99.994-153.886 185.149-190.617l2.135-1.198 13.664 28.178 24.7-9.481-28.802-58.339-24.629 10.858C142.482 56.867 70.546 130.926 33.088 225.221c-37.457 94.294-35.955 197.533 4.236 290.693 28.412 65.857 73.74 121.101 131.185 161.065 23.817 16.57 49.726 30.515 77.365 41.493 35.29 14.019 71.831 22.575 108.63 25.694a24.81 24.81 0 00-.19 2.245l-46.436 31.432c-58.483 13.347-115.086 38.768-115.086 60.203 0 23.048 83.774 41.734 187.113 41.734s187.113-18.686 187.113-41.734c0-21.469-56.781-46.936-115.362-60.266"/>
    <path fill="#0A0B09" d="M656.015 530.367c-90.894 146.364-283.899 191.498-430.276 100.614-70.901-44.032-120.415-113.034-139.418-194.304-19.003-81.266-5.221-165.072 38.807-235.972 44.028-70.9 113.034-120.414 194.3-139.417 81.266-19.004 165.076-5.221 235.977 38.807 146.364 90.888 191.494 283.907 100.61 430.272zM544.576 707.755l-13.9 5.338-18.006-47.648a327.206 327.206 0 0013.244-5.698l18.662 48.008zm-296.547 5.301c-26.995-10.724-52.63-24.471-76.194-40.862-56.78-39.499-101.441-94.342-129.16-158.592C3.104 421.878 1.62 320.224 38.507 227.375 74.67 136.339 143.47 64.453 232.618 24.379l8.315 19.277C156.938 81.496 92.108 149.289 58.009 235.119c-34.813 87.637-33.415 183.589 3.944 270.174 37.35 86.59 106.186 153.447 193.819 188.26 82.844 32.915 173.083 33.301 255.858 1.702l7.415 19.623c-87.669 33.46-183.254 33.038-271.016-1.822zm154.248 38.249l43.267 29.292c-4.425 7.586-27.664 16.8-62.078 16.8-.755 0-1.493-.017-2.23-.036l-1.187-.031s-2.451-.059-3.701-.059c-34.414 0-57.653-9.214-62.078-16.8l43.272-29.292a5.662 5.662 0 001.064-.94c9.187.667 18.383 1.107 27.581 1.107 5.243 0 10.486-.137 15.725-.356.126.102.229.225.365.315zm54.081 33.31c55.634 13.573 104.905 37.622 104.905 53.429 0 15.023-68.993 35.982-181.358 35.982-112.361 0-181.354-20.959-181.354-35.982 0-15.812 49.298-39.868 104.947-53.44 7.246 15.896 40.203 24.179 72.85 24.179 1.151 0 3.404.059 3.449.059l1.147.027c.832.017 1.668.04 2.522.04 32.723 0 65.749-8.325 72.892-24.294zM257.575 13.357l23.384 47.362a326.12 326.12 0 00-13.878 5.308l-22.645-46.721 13.139-5.949zM75.111 439.299c19.705 84.259 71.039 155.807 144.556 201.459 53.072 32.957 112.064 48.664 170.373 48.664 38.213 0 76.122-6.777 111.892-19.834l5.566 14.728c-80.048 30.566-167.312 30.223-247.418-1.599-84.742-33.664-151.302-98.313-187.424-182.047-36.119-83.721-37.472-176.502-3.81-261.244 33.291-83.796 96.906-149.761 179.266-186.143l8.358 17.242c-57.926 26.187-106.83 68.887-141.118 124.11-45.655 73.513-59.942 160.403-40.241 244.664zm630.917-147.526c-19.701-84.26-71.04-155.807-144.553-201.454-73.518-45.656-160.408-59.937-244.668-40.242-8.424 1.97-16.682 4.343-24.838 6.936L265.436 3.266a5.747 5.747 0 00-7.537-2.693s-24.066 10.534-24.566 10.751C138.74 52.133 65.699 127.332 27.669 223.068c-38.033 95.744-36.509 200.568 4.304 295.157 28.577 66.246 74.638 122.798 133.207 163.538 24.292 16.904 50.72 31.078 78.541 42.13 31.639 12.568 64.269 20.707 97.188 24.645l-35.538 24.053c-59.297 13.65-118.332 39.691-118.332 65.453 0 31.18 97.022 47.494 192.866 47.494 50.386 0 97.822-4.389 133.562-12.362 39.356-8.782 59.308-20.599 59.308-35.132 0-25.803-59.222-51.887-118.617-65.52l-33.684-22.804a383.852 383.852 0 0076.979-15.033c9.06-2.757 56.647-18.259 56.647-18.259a5.766 5.766 0 003.301-7.46l-21.072-54.2c51.571-25.882 96.857-65.821 129.461-118.331 45.652-73.512 59.942-160.404 40.238-244.664z"/>
    <path fill="#0A0B09" d="M671.577 285.253c38.848 152.088-105.967 330.271-283.811 218.916-61.656-38.606-114.553-124.725-79.717-129.786 4.135-.601 12.205.937 16.224 10.509 50.229 119.641 164.201 143.901 225.413 122.625 64.743-22.503 142.304-113.263 103.166-236.607-1.986-6.254-3.344-14.258 1.451-16.875 7.511 1.161 11.386 8.163 17.274 31.218M371.064 234.233c11.144 31.997-.158 57.562-20.853 47.164-24.994-12.558-42.497-72.761-18.436-84.293 16.651-4.386 32.999 19.072 39.289 37.129M566.218 167.41c17.463 23.85 17.392 44.039 4.595 42.285-20.763-2.849-68.407-67.455-56.021-75.966.381-.262.973-.465 1.391-.664 11.648-2.2 35.029 13.85 50.035 34.345"/>
  </g>
</svg>
